# xmcd
# 
# Track frame offsets:
#     150
#     18630
#     39412
#     57082
# 
# Disc length: 1006
# 
# Revision: 2
# Processed by: cddbd v1.5.2PL0 Copyright (c) Steve Scherf et al.
# Submitted via: BonkEnc v1.0.5
# 
DISCID=2a03ec04
DTITLE=チェキッ娘 - ピンクのチェリー
DYEAR=1999
DGENRE=JPop
TTITLE0=はじまり
TTITLE1=はだかになりたい (下川みくに・熊切あさ美・町田恵)
TTITLE2=ピンクのチェリー (上田愛美・久志麻理奈・佐々木絵美子)
TTITLE3=はじまり (オリジナル カラオケ)
EXTD=YEAR: 1999
EXTT0=
EXTT1=
EXTT2=
EXTT3=
PLAYORDER=
